<svg width="12" height="17" viewBox="0 0 12 17" fill="none" xmlns="http://www.w3.org/2000/svg">
<path d="M10.375 0.270081H1.625C1.2106 0.270081 0.813171 0.434701 0.520146 0.727726C0.22712 1.02075 0.0625001 1.41818 0.0625001 1.83258V15.5826C0.0624439 15.75 0.107198 15.9143 0.192114 16.0585C0.277031 16.2028 0.399013 16.3216 0.545392 16.4028C0.691772 16.484 0.857211 16.5245 1.02453 16.5201C1.19185 16.5157 1.35494 16.4666 1.49688 16.3779L5.99922 13.5654L10.5031 16.3779C10.6451 16.4666 10.8082 16.5157 10.9755 16.5201C11.1428 16.5245 11.3082 16.484 11.4546 16.4028C11.601 16.3216 11.723 16.2028 11.8079 16.0585C11.8928 15.9143 11.9376 15.75 11.9375 15.5826V1.83258C11.9375 1.41818 11.7729 1.02075 11.4799 0.727726C11.1868 0.434701 10.7894 0.270081 10.375 0.270081ZM10.0625 13.8912L6.49609 11.6623C6.3471 11.5691 6.17492 11.5198 5.99922 11.5198C5.82351 11.5198 5.65134 11.5691 5.50234 11.6623L1.9375 13.8912V2.14508H10.0625V13.8912Z" fill="black" fill-opacity="0.5"/>
</svg>
