<svg width="18" height="18" viewBox="0 0 18 18" fill="none" xmlns="http://www.w3.org/2000/svg">
<path d="M9 0.645065C7.33122 0.645065 5.69992 1.13992 4.31238 2.06704C2.92484 2.99416 1.84338 4.31192 1.20477 5.85367C0.566156 7.39543 0.399065 9.09192 0.724628 10.7286C1.05019 12.3654 1.85379 13.8688 3.03379 15.0488C4.2138 16.2288 5.71721 17.0324 7.35393 17.3579C8.99064 17.6835 10.6871 17.5164 12.2289 16.8778C13.7706 16.2392 15.0884 15.1577 16.0155 13.7702C16.9427 12.3826 17.4375 10.7513 17.4375 9.08257C17.435 6.84556 16.5453 4.70089 14.9635 3.11909C13.3817 1.53729 11.237 0.647547 9 0.645065ZM9 15.6451C7.70206 15.6451 6.43327 15.2602 5.35407 14.5391C4.27488 13.818 3.43374 12.7931 2.93704 11.5939C2.44034 10.3948 2.31038 9.07529 2.5636 7.80228C2.81682 6.52928 3.44183 5.35996 4.35962 4.44218C5.2774 3.52439 6.44672 2.89938 7.71972 2.64616C8.99272 2.39295 10.3122 2.52291 11.5114 3.01961C12.7105 3.51631 13.7354 4.35744 14.4565 5.43664C15.1776 6.51583 15.5625 7.78463 15.5625 9.08257C15.5606 10.8225 14.8686 12.4906 13.6383 13.7209C12.408 14.9512 10.7399 15.6432 9 15.6451ZM14.3125 9.08257C14.3125 9.33121 14.2137 9.56966 14.0379 9.74548C13.8621 9.92129 13.6236 10.0201 13.375 10.0201H11.2656L12.7906 11.5443C12.9667 11.7204 13.0657 11.9593 13.0657 12.2083C13.0657 12.4574 12.9667 12.6963 12.7906 12.8724C12.6145 13.0485 12.3756 13.1475 12.1266 13.1475C11.8775 13.1475 11.6386 13.0485 11.4625 12.8724L8.3375 9.74741C8.20575 9.61642 8.11589 9.44925 8.07932 9.2671C8.04275 9.08495 8.06112 8.89605 8.13211 8.72436C8.20309 8.55267 8.32349 8.40595 8.47801 8.30281C8.63254 8.19967 8.81422 8.14476 9 8.14507H13.375C13.6236 8.14507 13.8621 8.24384 14.0379 8.41965C14.2137 8.59547 14.3125 8.83392 14.3125 9.08257Z" fill="#2A67A2"/>
</svg>
