<svg width="20" height="18" viewBox="0 0 20 18" fill="none" xmlns="http://www.w3.org/2000/svg">
<path d="M18.9844 6.58257C18.8875 6.28359 18.7041 6.02008 18.4574 5.82538C18.2107 5.63068 17.9117 5.51356 17.5984 5.48882L13.1773 5.13179L11.4711 1.00601C11.3512 0.714416 11.1473 0.465035 10.8854 0.289537C10.6234 0.114038 10.3153 0.02034 9.99998 0.02034C9.6847 0.02034 9.37652 0.114038 9.11459 0.289537C8.85267 0.465035 8.6488 0.714416 8.52889 1.00601L6.8242 5.13257L2.40311 5.48882C2.08922 5.51471 1.78999 5.63279 1.54301 5.82824C1.29603 6.02368 1.11233 6.28776 1.01499 6.5873C0.917645 6.88683 0.911009 7.20846 0.995911 7.51175C1.08081 7.81505 1.25347 8.08648 1.49217 8.29195L4.86561 11.2013L3.83436 15.5529C3.75914 15.8597 3.77694 16.1819 3.88547 16.4786C3.99401 16.7753 4.18838 17.0329 4.44383 17.2187C4.69927 17.4046 5.00425 17.5102 5.31991 17.5221C5.63558 17.534 5.94765 17.4517 6.21639 17.2857L9.99998 14.9568L13.7836 17.2857C14.0522 17.4506 14.3638 17.5321 14.6788 17.5198C14.9938 17.5076 15.2981 17.4021 15.5531 17.2169C15.8082 17.0316 16.0025 16.7748 16.1116 16.479C16.2206 16.1832 16.2394 15.8617 16.1656 15.5552L15.1344 11.2037L18.5078 8.29429C18.7479 8.08833 18.9214 7.81565 19.0063 7.51088C19.0911 7.20611 19.0835 6.883 18.9844 6.58257ZM13.4789 10.1529C13.3488 10.265 13.252 10.4108 13.1991 10.5742C13.1462 10.7376 13.1392 10.9123 13.1789 11.0794L14.1859 15.3326L10.4914 13.0607C10.3436 12.9697 10.1735 12.9216 9.99998 12.9216C9.82647 12.9216 9.65635 12.9697 9.50858 13.0607L5.81405 15.3326L6.82108 11.0826C6.86074 10.9155 6.85374 10.7407 6.80084 10.5773C6.74793 10.4139 6.65116 10.2682 6.52108 10.156L3.21873 7.30445L7.54686 6.95523C7.7191 6.94139 7.88416 6.88022 8.02382 6.77848C8.16347 6.67673 8.2723 6.53837 8.33827 6.37867L9.99998 2.35523L11.6617 6.37867C11.7277 6.53837 11.8365 6.67673 11.9762 6.77848C12.1158 6.88022 12.2809 6.94139 12.4531 6.95523L16.7812 7.30445L13.4789 10.1529Z" fill="black" fill-opacity="0.5"/>
</svg>
