<svg width="16" height="17" viewBox="0 0 16 17" fill="none" xmlns="http://www.w3.org/2000/svg">
<path d="M15.3547 7.3521L9.1047 1.1021C8.81168 0.809178 8.41433 0.644623 8.00001 0.644623C7.58569 0.644623 7.18833 0.809178 6.89532 1.1021L0.645321 7.3521C0.499638 7.49689 0.384154 7.66916 0.305565 7.85893C0.226977 8.0487 0.186849 8.25218 0.187508 8.45757V15.9576C0.187508 16.2062 0.28628 16.4447 0.462095 16.6205C0.637911 16.7963 0.876368 16.8951 1.12501 16.8951H6.12501C6.37365 16.8951 6.6121 16.7963 6.78792 16.6205C6.96374 16.4447 7.06251 16.2062 7.06251 15.9576V11.8951H8.93751V15.9576C8.93751 16.2062 9.03628 16.4447 9.2121 16.6205C9.38791 16.7963 9.62637 16.8951 9.87501 16.8951H14.875C15.1236 16.8951 15.3621 16.7963 15.5379 16.6205C15.7137 16.4447 15.8125 16.2062 15.8125 15.9576V8.45757C15.8132 8.25218 15.773 8.0487 15.6945 7.85893C15.6159 7.66916 15.5004 7.49689 15.3547 7.3521ZM13.9375 15.0201H10.8125V10.9576C10.8125 10.7089 10.7137 10.4705 10.5379 10.2947C10.3621 10.1188 10.1236 10.0201 9.87501 10.0201H6.12501C5.87637 10.0201 5.63791 10.1188 5.4621 10.2947C5.28628 10.4705 5.18751 10.7089 5.18751 10.9576V15.0201H2.06251V8.58648L8.00001 2.64898L13.9375 8.58648V15.0201Z" fill="#2A67A2"/>
</svg>
