<svg width="17" height="16" viewBox="0 0 17 16" fill="none" xmlns="http://www.w3.org/2000/svg">
<path d="M7.6875 14.9576C7.6875 15.2062 7.58873 15.4447 7.41291 15.6205C7.2371 15.7963 6.99864 15.8951 6.75 15.8951H1.75C1.50136 15.8951 1.2629 15.7963 1.08709 15.6205C0.911272 15.4447 0.8125 15.2062 0.8125 14.9576V1.20758C0.8125 0.95894 0.911272 0.720483 1.08709 0.544668C1.2629 0.368853 1.50136 0.270081 1.75 0.270081H6.75C6.99864 0.270081 7.2371 0.368853 7.41291 0.544668C7.58873 0.720483 7.6875 0.95894 7.6875 1.20758C7.6875 1.45622 7.58873 1.69468 7.41291 1.87049C7.2371 2.04631 6.99864 2.14508 6.75 2.14508H2.6875V14.0201H6.75C6.99864 14.0201 7.2371 14.1189 7.41291 14.2947C7.58873 14.4705 7.6875 14.7089 7.6875 14.9576ZM16.1633 7.4193L13.0383 4.2943C12.8622 4.11818 12.6233 4.01924 12.3742 4.01924C12.1251 4.01924 11.8863 4.11818 11.7102 4.2943C11.534 4.47042 11.4351 4.70929 11.4351 4.95836C11.4351 5.20743 11.534 5.4463 11.7102 5.62242L13.2344 7.14508H6.75C6.50136 7.14508 6.2629 7.24385 6.08709 7.41967C5.91127 7.59548 5.8125 7.83394 5.8125 8.08258C5.8125 8.33122 5.91127 8.56968 6.08709 8.74549C6.2629 8.92131 6.50136 9.02008 6.75 9.02008H13.2344L11.7094 10.5443C11.5333 10.7204 11.4343 10.9593 11.4343 11.2084C11.4343 11.4574 11.5333 11.6963 11.7094 11.8724C11.8855 12.0485 12.1244 12.1475 12.3734 12.1475C12.6225 12.1475 12.8614 12.0485 13.0375 11.8724L16.1625 8.74742C16.2499 8.66038 16.3194 8.55693 16.3667 8.443C16.4141 8.32907 16.4386 8.20691 16.4386 8.08352C16.4387 7.96014 16.4144 7.83795 16.3672 7.72396C16.3199 7.60998 16.2506 7.50645 16.1633 7.4193Z" fill="black" fill-opacity="0.5"/>
</svg>
