<svg width="20" height="20" viewBox="0 0 20 20" fill="none" xmlns="http://www.w3.org/2000/svg">
<path d="M14.7806 7.71538C14.8504 7.78503 14.9057 7.86775 14.9434 7.9588C14.9812 8.04984 15.0006 8.14744 15.0006 8.246C15.0006 8.34456 14.9812 8.44216 14.9434 8.53321C14.9057 8.62425 14.8504 8.70697 14.7806 8.77663L11.7806 11.7766C11.711 11.8464 11.6283 11.9017 11.5372 11.9394C11.4462 11.9772 11.3486 11.9966 11.25 11.9966C11.1514 11.9966 11.0538 11.9772 10.9628 11.9394C10.8717 11.9017 10.789 11.8464 10.7194 11.7766L8.25 9.30631L5.78062 11.7766C5.63989 11.9174 5.44902 11.9964 5.25 11.9964C5.05098 11.9964 4.8601 11.9174 4.71937 11.7766C4.57864 11.6359 4.49958 11.445 4.49958 11.246C4.49958 11.047 4.57864 10.8561 4.71937 10.7154L7.71937 7.71538C7.78903 7.64564 7.87175 7.59032 7.96279 7.55258C8.05384 7.51484 8.15144 7.49541 8.25 7.49541C8.34856 7.49541 8.44616 7.51484 8.53721 7.55258C8.62825 7.59032 8.71097 7.64564 8.78063 7.71538L11.25 10.1857L13.7194 7.71538C13.789 7.64564 13.8717 7.59032 13.9628 7.55258C14.0538 7.51484 14.1514 7.49541 14.25 7.49541C14.3486 7.49541 14.4462 7.51484 14.5372 7.55258C14.6283 7.59032 14.711 7.64564 14.7806 7.71538ZM19.5 9.746C19.5004 11.4293 19.0649 13.084 18.236 14.5491C17.4072 16.0142 16.2131 17.2398 14.77 18.1065C13.327 18.9732 11.6841 19.4515 10.0014 19.4949C8.31863 19.5383 6.6533 19.1453 5.1675 18.3541L1.97531 19.4182C1.71102 19.5063 1.4274 19.5191 1.15624 19.4551C0.885089 19.3911 0.637113 19.2529 0.44011 19.0559C0.243108 18.8589 0.104864 18.6109 0.0408727 18.3398C-0.0231183 18.0686 -0.0103272 17.785 0.0778122 17.5207L1.14187 14.3285C0.446389 13.0209 0.0579347 11.572 0.0059975 10.0919C-0.0459397 8.61177 0.240005 7.13925 0.842128 5.78613C1.44425 4.433 2.34672 3.23482 3.48105 2.28256C4.61537 1.33029 5.95173 0.648948 7.38869 0.290259C8.82565 -0.0684305 10.3254 -0.0950433 11.7742 0.21244C13.223 0.519923 14.5827 1.15342 15.7501 2.06485C16.9175 2.97627 17.8619 4.14168 18.5116 5.47259C19.1614 6.8035 19.4994 8.26495 19.5 9.746ZM18 9.746C17.9996 8.48049 17.7082 7.23203 17.1481 6.0972C16.588 4.96237 15.7744 3.9716 14.7701 3.20153C13.7659 2.43147 12.5979 1.90276 11.3567 1.6563C10.1154 1.40985 8.83405 1.45226 7.61178 1.78025C6.38951 2.10824 5.25909 2.71302 4.30796 3.54781C3.35682 4.38259 2.61049 5.42499 2.12668 6.59437C1.64288 7.76375 1.43458 9.02876 1.5179 10.2915C1.60122 11.5543 1.97393 12.781 2.60719 13.8766C2.66034 13.9686 2.69334 14.0708 2.704 14.1765C2.71467 14.2822 2.70276 14.389 2.66906 14.4898L1.5 17.996L5.00625 16.826C5.10707 16.7924 5.21386 16.7807 5.31956 16.7915C5.42526 16.8023 5.52746 16.8355 5.61937 16.8888C6.87354 17.6142 8.29662 17.9966 9.74547 17.9974C11.1943 17.9981 12.6178 17.6174 13.8728 16.8933C15.1277 16.1693 16.1699 15.1276 16.8944 13.8729C17.6189 12.6182 18.0002 11.1948 18 9.746Z" fill="black"/>
</svg>
