<svg width="17" height="19" viewBox="0 0 17 19" fill="none" xmlns="http://www.w3.org/2000/svg">
<path d="M12.75 11.2701C11.9128 11.2687 11.1042 11.5745 10.4774 12.1294L7.28909 10.0826C7.48699 9.43059 7.48699 8.73455 7.28909 8.08257L10.4774 6.0357C11.098 6.58109 11.8948 6.88372 12.721 6.88778C13.5471 6.89185 14.3469 6.59707 14.9728 6.05782C15.5988 5.51856 16.0086 4.77119 16.1268 3.95351C16.245 3.13583 16.0636 2.30298 15.616 1.60854C15.1684 0.914105 14.4849 0.404904 13.6914 0.174834C12.8979 -0.0552351 12.0479 0.00934171 11.2983 0.356657C10.5487 0.703973 9.94991 1.31061 9.61238 2.0647C9.27486 2.81879 9.22136 3.66948 9.46175 4.45992L6.27268 6.50445C5.77676 6.06617 5.16485 5.78038 4.51045 5.68139C3.85606 5.58241 3.187 5.67444 2.58363 5.94643C1.98027 6.21843 1.46825 6.65882 1.10907 7.21472C0.749899 7.77062 0.558838 8.41839 0.558838 9.08023C0.558838 9.74207 0.749899 10.3898 1.10907 10.9457C1.46825 11.5016 1.98027 11.942 2.58363 12.214C3.187 12.486 3.85606 12.578 4.51045 12.4791C5.16485 12.3801 5.77676 12.0943 6.27268 11.656L9.46097 13.7076C9.2506 14.3994 9.26378 15.14 9.49862 15.8239C9.73347 16.5079 10.178 17.1003 10.769 17.517C11.36 17.9337 12.0674 18.1534 12.7905 18.1448C13.5136 18.1363 14.2155 17.8999 14.7965 17.4693C15.3775 17.0388 15.8079 16.436 16.0265 15.7467C16.2451 15.0574 16.2407 14.3167 16.014 13.63C15.7873 12.9433 15.3499 12.3456 14.7639 11.9219C14.1779 11.4982 13.4732 11.2701 12.75 11.2701ZM12.75 1.89507C13.0591 1.89507 13.3612 1.98671 13.6181 2.1584C13.8751 2.33009 14.0753 2.57412 14.1936 2.85963C14.3119 3.14514 14.3428 3.4593 14.2825 3.7624C14.2222 4.0655 14.0734 4.34391 13.8549 4.56243C13.6364 4.78095 13.358 4.92976 13.0549 4.99005C12.7518 5.05034 12.4376 5.01939 12.1521 4.90113C11.8666 4.78287 11.6225 4.5826 11.4509 4.32565C11.2792 4.0687 11.1875 3.7666 11.1875 3.45757C11.1875 3.04317 11.3521 2.64574 11.6452 2.35272C11.9382 2.05969 12.3356 1.89507 12.75 1.89507ZM4.00003 10.6451C3.691 10.6451 3.3889 10.5534 3.13195 10.3817C2.875 10.2101 2.67473 9.96602 2.55647 9.68051C2.43821 9.395 2.40726 9.08084 2.46755 8.77774C2.52784 8.47465 2.67666 8.19624 2.89517 7.97772C3.11369 7.7592 3.39211 7.61038 3.6952 7.55009C3.9983 7.4898 4.31246 7.52075 4.59797 7.63901C4.88348 7.75727 5.12751 7.95754 5.2992 8.21449C5.47089 8.47144 5.56253 8.77354 5.56253 9.08257C5.56253 9.49697 5.39791 9.8944 5.10488 10.1874C4.81186 10.4805 4.41443 10.6451 4.00003 10.6451ZM12.75 16.2701C12.441 16.2701 12.1389 16.1784 11.882 16.0067C11.625 15.8351 11.4247 15.591 11.3065 15.3055C11.1882 15.02 11.1573 14.7058 11.2176 14.4027C11.2778 14.0996 11.4267 13.8212 11.6452 13.6027C11.8637 13.3842 12.1421 13.2354 12.4452 13.1751C12.7483 13.1148 13.0625 13.1457 13.348 13.264C13.6335 13.3823 13.8775 13.5825 14.0492 13.8395C14.2209 14.0964 14.3125 14.3985 14.3125 14.7076C14.3125 15.122 14.1479 15.5194 13.8549 15.8124C13.5619 16.1055 13.1644 16.2701 12.75 16.2701Z" fill="black" fill-opacity="0.5"/>
</svg>
