<svg width="16" height="18" viewBox="0 0 16 18" fill="none" xmlns="http://www.w3.org/2000/svg">
<path d="M14.875 3.83258H1.125C0.87636 3.83258 0.637903 3.93135 0.462087 4.10717C0.286272 4.28298 0.1875 4.52144 0.1875 4.77008C0.1875 5.01872 0.286272 5.25718 0.462087 5.43299C0.637903 5.60881 0.87636 5.70758 1.125 5.70758H1.4375V16.3326C1.4375 16.747 1.60212 17.1444 1.89515 17.4374C2.18817 17.7305 2.5856 17.8951 3 17.8951H13C13.4144 17.8951 13.8118 17.7305 14.1049 17.4374C14.3979 17.1444 14.5625 16.747 14.5625 16.3326V5.70758H14.875C15.1236 5.70758 15.3621 5.60881 15.5379 5.43299C15.7137 5.25718 15.8125 5.01872 15.8125 4.77008C15.8125 4.52144 15.7137 4.28298 15.5379 4.10717C15.3621 3.93135 15.1236 3.83258 14.875 3.83258ZM12.6875 16.0201H3.3125V5.70758H12.6875V16.0201ZM3.9375 1.64508C3.9375 1.39644 4.03627 1.15798 4.21209 0.982168C4.3879 0.806353 4.62636 0.707581 4.875 0.707581H11.125C11.3736 0.707581 11.6121 0.806353 11.7879 0.982168C11.9637 1.15798 12.0625 1.39644 12.0625 1.64508C12.0625 1.89372 11.9637 2.13218 11.7879 2.30799C11.6121 2.48381 11.3736 2.58258 11.125 2.58258H4.875C4.62636 2.58258 4.3879 2.48381 4.21209 2.30799C4.03627 2.13218 3.9375 1.89372 3.9375 1.64508Z" fill="black" fill-opacity="0.5"/>
</svg>
